<?xml version="1.0" encoding="iso-8859-1"?>
<!-- Generator: Adobe Illustrator 19.0.0, SVG Export Plug-In . SVG Version: 6.00 Build 0)  -->
<svg version="1.1" id="Capa_1" xmlns="http://www.w3.org/2000/svg" xmlns:xlink="http://www.w3.org/1999/xlink" x="0px" y="0px"
	 viewBox="0 0 512.001 512.001" style="enable-background:new 0 0 512.001 512.001;" xml:space="preserve">
<g>
	<g>
		<path d="M299.693,287.652h-63.597c-5.273,0-9.563,4.29-9.563,9.564v68.721c0,5.273,4.289,9.563,9.563,9.563h63.597
			c5.273,0,9.563-4.289,9.563-9.563v-68.721C309.255,291.943,304.966,287.652,299.693,287.652z M294.682,360.926h-53.576v-58.701
			h53.576V360.926z"/>
	</g>
</g>
<g>
	<g>
		<path d="M423.11,287.652h-63.597c-5.273,0-9.564,4.29-9.564,9.564v68.721c0,5.273,4.29,9.563,9.564,9.563h63.597
			c5.273,0,9.563-4.289,9.563-9.563v-68.721C432.673,291.943,428.383,287.652,423.11,287.652z M418.1,360.926h-53.577v-58.701H418.1
			V360.926z"/>
	</g>
</g>
<g>
	<g>
		<path d="M131.977,336.677c-4.025,0-7.287,3.262-7.287,7.287v15.059c0.001,4.025,3.263,7.287,7.287,7.287
			c4.025,0,7.287-3.262,7.287-7.287v-15.059C139.264,339.938,136.002,336.677,131.977,336.677z"/>
	</g>
</g>
<g>
	<g>
		<path d="M489.902,404.121h-13.771V225.892h5.635c4.773,0,9.142-2.613,11.4-6.819c2.259-4.206,2.024-9.29-0.613-13.271
			L402.202,69.475c-2.403-3.627-6.435-5.792-10.787-5.792h-45.538c-4.025,0-7.286,3.262-7.286,7.287
			c0,4.025,3.262,7.287,7.286,7.287h44.661l88.187,133.064H213.66L125.472,78.256h174.5c4.025,0,7.287-3.262,7.287-7.287
			s-3.262-7.287-7.287-7.287H111.901c-2.443,0-4.724,1.225-6.074,3.261L12.42,207.884c-0.001,0.001-0.001,0.002-0.002,0.004
			l-0.845,1.275c-2.195,3.315-2.39,7.549-0.509,11.052c1.881,3.502,5.519,5.677,9.494,5.677h1.532h8.132v178.229h-8.124
			C9.913,404.121,0,414.035,0,426.22s9.913,22.098,22.098,22.098h467.805c12.185,0,22.098-9.913,22.098-22.098
			C512,414.035,502.087,404.121,489.902,404.121z M204.427,225.892h257.131v178.229H204.427V225.892z M27.627,211.319l84.274-127.16
			l84.275,127.16H27.627z M148.371,279.029H79.046c-5.29,0-9.595,4.305-9.595,9.596v115.496H44.795V225.892h145.059v178.229h-31.888
			V288.625C157.966,283.333,153.661,279.029,148.371,279.029z M143.393,293.602v110.519H84.025V293.602H143.393z M489.902,433.745
			H22.098c-4.149,0-7.525-3.376-7.525-7.525c0-4.15,3.376-7.526,7.525-7.526h467.804c4.149,0,7.525,3.376,7.525,7.526
			C497.427,430.369,494.051,433.745,489.902,433.745z"/>
	</g>
</g>
<g>
</g>
<g>
</g>
<g>
</g>
<g>
</g>
<g>
</g>
<g>
</g>
<g>
</g>
<g>
</g>
<g>
</g>
<g>
</g>
<g>
</g>
<g>
</g>
<g>
</g>
<g>
</g>
<g>
</g>
</svg>
