<?xml version="1.0" encoding="iso-8859-1"?>
<!-- Generator: Adobe Illustrator 19.0.0, SVG Export Plug-In . SVG Version: 6.00 Build 0)  -->
<svg version="1.1" id="Capa_1" xmlns="http://www.w3.org/2000/svg" xmlns:xlink="http://www.w3.org/1999/xlink" x="0px" y="0px"
	 viewBox="0 0 512.001 512.001" style="enable-background:new 0 0 512.001 512.001;" xml:space="preserve">
<g>
	<g>
		<path d="M235.038,292.858c0-5.095,4.352-8.174,11.994-8.174c8.916,0,11.357,4.035,14.647,4.035c3.821,0,5.52-4.883,5.52-7.324
			c0-7.006-13.904-8.492-20.167-8.492c-12.206,0-25.792,5.414-25.792,21.228c0,25.155,34.071,20.274,34.071,36.195
			c0,6.368-5.52,9.234-11.887,9.234c-10.827,0-13.693-8.173-18.044-8.173c-3.291,0-6.05,4.458-6.05,7.43
			c0,6.156,10.614,13.161,24.518,13.161c14.647,0,25.261-7.855,25.261-23.032C269.11,301.455,235.038,306.019,235.038,292.858z"/>
	</g>
</g>
<g>
	<g>
		<path d="M304.661,273.434c-14.01,0-24.836,6.58-24.836,24.306v29.613c0,17.725,10.826,24.306,24.836,24.306
			c14.011,0,24.944-6.58,24.944-24.306V297.74C329.604,280.014,318.672,273.434,304.661,273.434z M315.806,327.353
			c0,8.385-4.245,12.206-11.145,12.206c-7.005,0-11.038-3.821-11.038-12.206V297.74c0-8.385,4.034-12.206,11.038-12.206
			c6.9,0,11.145,3.821,11.145,12.206V327.353z"/>
	</g>
</g>
<g>
	<g>
		<path d="M383.2,338.923h-25.898V277.68c0-2.972-3.502-4.245-6.899-4.245c-3.502,0-6.899,1.273-6.899,4.245v68.991
			c0,2.866,2.972,4.352,6.05,4.352H383.2c2.759,0,4.139-3.079,4.139-6.051C387.34,341.895,385.96,338.923,383.2,338.923z"/>
	</g>
</g>
<g>
	<g>
		<path d="M421.831,273.434h-18.787c-3.609,0-6.05,2.017-6.05,4.245v69.097c0,2.229,2.441,4.246,6.05,4.246h18.787
			c14.01,0,24.943-6.581,24.943-24.307V297.74C446.774,280.014,435.841,273.434,421.831,273.434z M432.975,326.716
			c0,8.279-4.139,12.207-11.144,12.207h-11.039v-53.389h11.039c7.005,0,11.144,3.927,11.144,12.206V326.716z"/>
	</g>
</g>
<g>
	<g>
		<path d="M492.263,228.066H350.581v-16.951c0-1.4-0.107-2.776-0.313-4.119c-1.99-12.985-13.236-22.963-26.77-22.963
			s-24.78,9.978-26.77,22.963c-0.206,1.343-0.313,2.719-0.313,4.119v16.951h-141.68c-10.203,0-18.622,7.782-19.635,17.722
			c-0.067,0.663-0.102,1.335-0.102,2.015v128.923c0,10.883,8.854,19.737,19.737,19.737h23.895v53.751H75.645V189.6L247.946,74.984
			l172.3,114.616v20.815c0,4.046,3.279,7.325,7.325,7.325c4.046,0,7.325-3.279,7.325-7.325v-11.069l22.202,14.769
			c4.2,2.794,9.013,4.19,13.827,4.19c4.814,0,9.628-1.396,13.827-4.191c6.974-4.639,11.138-12.411,11.138-20.787
			c-0.001-8.376-4.164-16.147-11.138-20.785L255.039,19.733c-4.309-2.865-9.878-2.866-14.187,0.001l-125.899,83.749
			c-3.368,2.24-4.283,6.787-2.041,10.156c2.24,3.367,6.786,4.284,10.156,2.041l124.879-83.07l228.692,152.13
			c2.924,1.945,4.601,5.075,4.602,8.587c0,3.513-1.678,6.644-4.603,8.59c-3.47,2.308-7.956,2.308-11.426,0L255.039,62.107
			c-2.155-1.433-4.624-2.149-7.094-2.149c-2.47,0-4.939,0.717-7.093,2.15L30.68,201.916c-3.472,2.31-7.958,2.309-11.427,0.001
			c-2.924-1.946-4.602-5.076-4.602-8.589s1.678-6.643,4.602-8.589l65.922-43.852c3.368-2.24,4.283-6.787,2.041-10.156
			c-2.24-3.367-6.786-4.283-10.156-2.041l-65.922,43.852C4.164,177.18,0,184.951,0,193.328c0,8.376,4.164,16.147,11.138,20.787
			c8.399,5.587,19.254,5.588,27.655-0.001l22.201-14.768v250.868H32.921c-12.187,0-22.101,9.915-22.101,22.101
			c0,12.187,9.915,22.101,22.101,22.101h430.048c12.187,0,22.101-9.915,22.101-22.101c0-12.187-9.915-22.101-22.101-22.101h-28.073
			V414.51c0-4.046-3.279-7.325-7.325-7.325c-4.046,0-7.325,3.279-7.325,7.325v35.703h-69.664v-53.751h141.682
			c10.883,0,19.737-8.854,19.737-19.737V247.803C512,236.92,503.146,228.066,492.263,228.066z M311.067,211.115
			c0-6.855,5.577-12.432,12.432-12.432c6.855,0,12.432,5.577,12.432,12.432v16.951h-24.864V211.115z M296.417,479.766H32.921
			c-4.109,0-7.451-3.342-7.451-7.451c0-4.109,3.342-7.451,7.451-7.451h263.496V479.766z M296.417,450.214H193.28v-53.751h103.137
			V450.214z M335.931,479.766h-24.864v-83.304h24.864V479.766z M462.969,464.864L462.969,464.864c4.109,0,7.451,3.342,7.451,7.451
			s-3.342,7.451-7.451,7.451H350.581v-14.902H462.969z M497.35,376.727c0,2.805-2.281,5.087-5.087,5.087H154.735
			c-2.805,0-5.087-2.281-5.087-5.087V247.803c0-2.804,2.281-5.086,5.087-5.086L490,242.716c0.006,0,2.257,0,2.263,0
			c2.805,0,5.087,2.281,5.087,5.087V376.727z"/>
	</g>
</g>
<g>
	<g>
		<path d="M247.946,107.233c-25.445,0-46.146,20.701-46.146,46.146c0,25.445,20.701,46.147,46.146,46.147
			c25.445,0,46.146-20.701,46.146-46.147C294.092,127.935,273.391,107.233,247.946,107.233z M240.62,184.006
			c-11.502-2.751-20.568-11.826-23.308-23.332h23.308V184.006z M240.62,146.023h-23.294c2.758-11.478,11.812-20.524,23.294-23.27
			V146.023z M255.27,122.753c11.482,2.746,20.536,11.793,23.294,23.27H255.27V122.753z M255.27,184.005v-23.332h23.308
			C275.838,172.18,266.772,181.254,255.27,184.005z"/>
	</g>
</g>
<g>
</g>
<g>
</g>
<g>
</g>
<g>
</g>
<g>
</g>
<g>
</g>
<g>
</g>
<g>
</g>
<g>
</g>
<g>
</g>
<g>
</g>
<g>
</g>
<g>
</g>
<g>
</g>
<g>
</g>
</svg>
