<?xml version="1.0" encoding="iso-8859-1"?>
<!-- Generator: Adobe Illustrator 19.0.0, SVG Export Plug-In . SVG Version: 6.00 Build 0)  -->
<svg version="1.1" id="Capa_1" xmlns="http://www.w3.org/2000/svg" xmlns:xlink="http://www.w3.org/1999/xlink" x="0px" y="0px"
	 viewBox="0 0 511.999 511.999" style="enable-background:new 0 0 511.999 511.999;" xml:space="preserve">
<g>
	<g>
		<path d="M190.814,376.49c-4.006,0-7.252,3.246-7.252,7.252v14.988c0,4.006,3.246,7.252,7.252,7.252
			c4.006,0,7.252-3.246,7.252-7.252v-14.988C198.066,379.737,194.82,376.49,190.814,376.49z"/>
	</g>
</g>
<g>
	<g>
		<path d="M511.93,251.095c-0.009-0.072-0.021-0.142-0.033-0.213c-0.047-0.295-0.109-0.585-0.191-0.867
			c-0.004-0.014-0.005-0.028-0.009-0.042l-0.011-0.037c-0.008-0.026-0.015-0.053-0.024-0.079l-21.609-72.549
			c-1.49-5.007-6.179-8.502-11.403-8.502h-53.503c-4.006,0-7.252,3.246-7.252,7.252s3.246,7.252,7.252,7.252h51.559l18.313,61.482
			H333.873V183.31h46.218c4.006,0,7.252-3.246,7.252-7.252s-3.246-7.252-7.252-7.252h-46.218V156.68h0.799
			c5.642,0,10.232-4.59,10.232-10.232V128.71c0-0.322-0.028-0.637-0.069-0.948c-0.009-0.072-0.021-0.142-0.033-0.213
			c-0.047-0.295-0.109-0.585-0.191-0.867c-0.004-0.014-0.005-0.028-0.009-0.042l-0.011-0.037c-0.008-0.026-0.015-0.053-0.024-0.079
			l-24.532-82.358c-1.565-5.253-6.485-8.922-11.966-8.922H37.137c-5.482,0-10.403,3.669-11.965,8.922L0.641,126.524
			c-0.008,0.026-0.016,0.053-0.024,0.079l-0.011,0.037c-0.004,0.014-0.005,0.028-0.009,0.042c-0.082,0.282-0.144,0.572-0.192,0.867
			c-0.012,0.071-0.023,0.142-0.032,0.213c-0.041,0.311-0.069,0.626-0.069,0.948v17.736c0,5.642,4.59,10.232,10.232,10.232h5.492
			v182.235c0,4.006,3.246,7.252,7.252,7.252c4.006,0,7.252-3.246,7.252-7.252V156.678h288.837v280.435h-98.304v-105.11
			c0-7.564-6.153-13.717-13.717-13.717h-69.49c-7.564,0-13.717,6.153-13.717,13.717v105.11h-93.61v-53.145
			c0-4.006-3.246-7.252-7.252-7.252s-7.252,3.246-7.252,7.252v53.518C6.909,439.262,0,447.303,0,456.934
			c0,10.929,8.892,19.821,19.821,19.821H483.25c10.929,0,19.821-8.892,19.821-19.821c0-8.796-5.764-16.263-13.71-18.847V279.181
			h9.935c7.005,0,12.703-5.699,12.703-12.702v-14.436C511.999,251.721,511.971,251.406,511.93,251.095z M333.873,279.181h140.985
			v157.932h-13.371v-78.007c0-16.19-13.172-29.361-29.361-29.361h-55.377c-16.19,0-29.36,13.172-29.36,29.361v78.007h-0.001h-13.515
			V279.181z M446.983,374.234v15.48h-85.091v-15.48H446.983z M361.892,359.73v-0.623c0-8.193,6.665-14.857,14.856-14.857h55.377
			c8.193,0,14.857,6.665,14.857,14.857v0.623H361.892z M446.983,404.219v15.479h-85.091v-15.479H446.983z M446.983,434.202v2.911
			h-85.091v-2.911H446.983z M38.643,49.749h267.923l21.359,71.709H17.283L38.643,49.749z M14.808,142.174v-6.212H330.4v6.212H14.808
			z M138.646,332.79h67.915v104.323h-67.915V332.79z M483.251,462.251H19.821c-2.932,0-5.317-2.385-5.317-5.317
			c0-2.932,2.385-5.317,5.317-5.317h463.43c2.932,0,5.317,2.385,5.317,5.317C488.568,459.866,486.183,462.251,483.251,462.251z
			 M482.11,264.677H333.873v-5.382h163.623v5.382H482.11z"/>
	</g>
</g>
<g>
	<g>
		<path d="M90.91,324.859H58.276c-7.975,0-14.463,6.488-14.463,14.463v55.15h-0.001c0,7.975,6.488,14.463,14.463,14.463H90.91
			c7.975,0,14.463-6.488,14.463-14.463v-55.15C105.373,331.347,98.885,324.859,90.91,324.859z M58.316,394.473l-0.041-55.11
			l32.595-0.041l0.045,55.11L58.316,394.473z"/>
	</g>
</g>
<g>
	<g>
		<path d="M286.931,324.859h-32.635c-7.975,0-14.463,6.488-14.463,14.463v55.15c0,7.975,6.488,14.463,14.463,14.463h32.635
			c7.975,0,14.463-6.488,14.463-14.463v-55.15C301.394,331.347,294.906,324.859,286.931,324.859z M254.337,394.473l-0.041-55.11
			l32.595-0.041l0.045,55.11L254.337,394.473z"/>
	</g>
</g>
<g>
	<g>
		<path d="M90.911,164.73H58.276c-7.975,0-14.463,6.488-14.463,14.463v55.15c-0.001,7.974,6.488,14.463,14.463,14.463h32.635
			c7.975,0,14.463-6.488,14.463-14.463v-55.15C105.374,171.218,98.886,164.73,90.911,164.73z M58.316,234.343l-0.041-55.11
			l32.595-0.041l0.045,55.11L58.316,234.343z"/>
	</g>
</g>
<g>
	<g>
		<path d="M286.931,164.73h-32.635c-7.975,0-14.463,6.488-14.463,14.463v55.15c0,7.974,6.488,14.463,14.463,14.463h32.635
			c7.975,0,14.463-6.488,14.463-14.463v-55.15C301.394,171.218,294.906,164.73,286.931,164.73z M254.337,234.343l-0.041-55.11
			l32.595-0.041l0.045,55.11L254.337,234.343z"/>
	</g>
</g>
<g>
	<g>
		<path d="M188.921,164.73h-32.635c-7.975,0-14.463,6.488-14.463,14.463v55.15c0,7.975,6.488,14.463,14.463,14.463h32.635
			c7.975,0,14.463-6.488,14.463-14.463v-55.15C203.384,171.218,196.896,164.73,188.921,164.73z M156.326,234.343l-0.041-55.11
			l32.595-0.041l0.045,55.11L156.326,234.343z"/>
	</g>
</g>
<g>
</g>
<g>
</g>
<g>
</g>
<g>
</g>
<g>
</g>
<g>
</g>
<g>
</g>
<g>
</g>
<g>
</g>
<g>
</g>
<g>
</g>
<g>
</g>
<g>
</g>
<g>
</g>
<g>
</g>
</svg>
