<?xml version="1.0" encoding="iso-8859-1"?>
<!-- Generator: Adobe Illustrator 19.0.0, SVG Export Plug-In . SVG Version: 6.00 Build 0)  -->
<svg version="1.1" id="Capa_1" xmlns="http://www.w3.org/2000/svg" xmlns:xlink="http://www.w3.org/1999/xlink" x="0px" y="0px"
	 viewBox="0 0 512 512" style="enable-background:new 0 0 512 512;" xml:space="preserve">
<g>
	<g>
		<path d="M511.98,217.298c-0.005-0.082-0.005-0.164-0.012-0.247c-0.051-0.582-0.171-1.143-0.35-1.678
			c-0.021-0.062-0.045-0.123-0.068-0.185c-0.079-0.217-0.168-0.429-0.267-0.636c-0.018-0.039-0.03-0.08-0.05-0.118l-41.581-83.547
			c-1.872-3.761-5.645-6.098-9.847-6.098h-53.212c-4.046,0-7.326,3.279-7.326,7.326c0,4.046,3.279,7.326,7.326,7.326h50.95
			l35.302,70.932H311.119l-66.41-70.932h115.69c4.046,0,7.326-3.279,7.326-7.326c0-4.046-3.279-7.326-7.326-7.326H230.991
			L165.109,54.42c-2.42-2.586-5.838-4.069-9.379-4.069c-0.001,0-0.001,0-0.002,0c-3.54,0-6.959,1.482-9.379,4.067L6.871,203.395
			c-3.502,3.74-4.447,9.193-2.409,13.893c2.038,4.7,6.666,7.737,11.788,7.737h11.529v117.703c0,4.046,3.279,7.326,7.326,7.326
			s7.326-3.279,7.326-7.326V225.025h226.597v196.578h-73.405V313.502c0-8.503-6.918-15.42-15.42-15.42h-48.945
			c-8.503,0-15.42,6.918-15.42,15.42v108.101H42.429v-31.676c0-4.046-3.279-7.326-7.326-7.326s-7.326,3.279-7.326,7.326v31.676
			h-7.755C8.983,421.603,0,430.586,0,441.626c0,11.04,8.983,20.023,20.023,20.023h468.143c11.04,0,20.023-8.983,20.023-20.023
			c0-10.707-8.455-19.453-19.036-19.973v-173.19h11.784c6.1,0,11.063-4.963,11.063-11.063v-19.701
			C512,217.563,511.987,217.431,511.98,217.298z M51.998,210.373l103.73-110.794l103.73,110.794H51.998z M130.487,313.502
			c0-0.424,0.345-0.769,0.769-0.769h48.945c0.424,0,0.769,0.345,0.769,0.769v108.101h-50.483V313.502z M493.536,441.625
			c0,2.962-2.41,5.371-5.371,5.371H20.023c-2.962,0-5.371-2.41-5.371-5.371s2.409-5.371,5.371-5.371h468.142
			C491.127,436.254,493.536,438.663,493.536,441.625z M439.525,390.711c-0.266,0-0.532,0.003-0.799,0.008
			c-5.975-7.082-13.721-12.359-22.326-15.389h32.956c5.644,0,10.235-4.591,10.235-10.235v-49.378
			c0-5.644-4.591-10.235-10.235-10.235h-44.627c-5.644,0-10.236,4.591-10.236,10.235v49.378c0,2.877,1.197,5.476,3.115,7.337
			c-20.248,0.675-38.11,13.102-45.819,31.692c-8.584,3.433-14.886,9.472-18.294,17.478h-49.817v-185.1l8.813,9.593
			c1.388,1.51,3.344,2.369,5.395,2.369h176.615v160.298C466.585,397.613,453.913,390.711,439.525,390.711z M465.154,421.603H350.97
			c2.219-2.076,5.075-3.637,8.555-4.669c2.294-0.68,4.11-2.437,4.868-4.706c5.02-15.058,19.067-25.176,34.952-25.176
			c11.889,0,23.113,5.79,30.024,15.488c1.554,2.182,4.169,3.336,6.834,3.023c1.107-0.133,2.225-0.199,3.322-0.199
			C448.918,405.363,459.8,410.504,465.154,421.603z M409.144,360.679v-40.546h35.795v40.546H409.144z M497.348,233.812H301.103
			c-0.004-0.004,0,0-0.004-0.004L161.076,83.854c-1.385-1.479-3.32-2.319-5.347-2.319s-3.962,0.839-5.347,2.319L31.927,210.373
			h-11.52L155.728,65.839l146.867,156.867c1.385,1.479,3.32,2.319,5.347,2.319h189.406V233.812z"/>
	</g>
</g>
<g>
	<g>
		<path d="M97.807,305.676H60.543c-4.805,0-8.714,3.909-8.714,8.714v46.689c0,4.805,3.909,8.714,8.714,8.714h37.264v-0.001
			c4.804,0,8.713-3.909,8.713-8.714V314.39C106.52,309.585,102.611,305.676,97.807,305.676z M91.868,355.141H66.481v-34.813h25.387
			V355.141z"/>
	</g>
</g>
<g>
	<g>
		<path d="M249.857,305.676h-37.264c-4.804,0-8.713,3.909-8.713,8.714v46.689c0,4.805,3.909,8.714,8.713,8.714h37.264v-0.001
			c4.805,0,8.714-3.909,8.714-8.714V314.39C258.571,309.585,254.662,305.676,249.857,305.676z M243.919,355.141h-25.387v-34.813
			h25.387V355.141z"/>
	</g>
</g>
<g>
	<g>
		<path d="M353.81,305.482h-44.628c-5.644,0-10.235,4.591-10.235,10.235v49.378c0,5.644,4.591,10.235,10.235,10.235h44.628
			c5.644,0,10.235-4.591,10.235-10.235v-49.378C364.045,310.073,359.454,305.482,353.81,305.482z M349.393,360.679h-35.795v-40.546
			h35.795V360.679z"/>
	</g>
</g>
<g>
	<g>
		<path d="M165.814,355.046c-4.006,0-7.252,3.246-7.252,7.252v14.988c0,4.006,3.246,7.252,7.252,7.252
			c4.006,0,7.252-3.246,7.252-7.252v-14.988C173.066,358.293,169.82,355.046,165.814,355.046z"/>
	</g>
</g>
<g>
</g>
<g>
</g>
<g>
</g>
<g>
</g>
<g>
</g>
<g>
</g>
<g>
</g>
<g>
</g>
<g>
</g>
<g>
</g>
<g>
</g>
<g>
</g>
<g>
</g>
<g>
</g>
<g>
</g>
</svg>
